<?xml version="1.0" encoding="iso-8859-1"?>
<!-- Generator: Adobe Illustrator 19.0.0, SVG Export Plug-In . SVG Version: 6.00 Build 0)  -->
<svg version="1.1" id="Capa_1" xmlns="http://www.w3.org/2000/svg" xmlns:xlink="http://www.w3.org/1999/xlink" x="0px" y="0px"
	 viewBox="0 0 512 512" style="enable-background:new 0 0 512 512;" xml:space="preserve">
<circle style="fill:#005FD1;" cx="256" cy="256" r="256"/>
<path style="fill:#003D8D;" d="M512,256c0-19.851-2.26-39.175-6.536-57.727l-87.18-87.597c-2.917-3.271-7.15-5.343-11.852-5.343
	H105.566c-8.754,0-15.917,7.162-15.917,15.917v220.098H69.993c-6.557,0-11.922,5.365-11.922,11.922v17.008
	c0,3.546,1.573,6.737,4.053,8.922l123.939,123.128C208.292,508.627,231.752,512,256,512C397.385,512,512,397.385,512,256z"/>
<path style="fill:#00CEB4;" d="M422.349,342.207h-332.7V121.25c0-8.754,7.162-15.917,15.917-15.917h300.867
	c8.754,0,15.917,7.162,15.917,15.917L422.349,342.207L422.349,342.207z"/>
<path style="fill:#00AD95;" d="M422.349,121.25v220.96h-166.35V105.33h150.43C415.189,105.33,422.349,112.5,422.349,121.25z"/>
<path style="fill:#00EED0;" d="M442.005,382.2H69.993c-6.557,0-11.922-5.365-11.922-11.922V353.27
	c0-6.557,5.365-11.922,11.922-11.922h372.012c6.557,0,11.922,5.365,11.922,11.922v17.008
	C453.927,376.835,448.562,382.2,442.005,382.2z"/>
<path style="fill:#00CEB4;" d="M453.929,353.27v17.01c0,6.56-5.37,11.92-11.92,11.92h-186.01v-40.85h186.01
	C448.559,341.35,453.929,346.71,453.929,353.27z"/>
<rect x="109.65" y="124.25" style="fill:#FFFFFF;" width="292.69" height="197.82"/>
<rect x="256" y="124.25" style="fill:#FFF5CB;" width="146.35" height="197.82"/>
<path style="fill:#57555C;" d="M293.497,221.629h-13.385V189.49c0-13.296-10.817-24.112-24.113-24.112
	c-13.296,0-24.113,10.817-24.113,24.112v32.139h-13.385V189.49c0-20.676,16.822-37.497,37.498-37.497s37.498,16.821,37.498,37.497
	V221.629z"/>
<path style="fill:#FF633E;" d="M274.079,297.513H237.92c-17.6,0-32-14.4-32-32V214.38h100.159v51.132
	C306.079,283.113,291.679,297.513,274.079,297.513z"/>
<path style="fill:#57555C;" d="M268.526,247.795c0-6.918-5.609-12.527-12.527-12.527s-12.527,5.609-12.527,12.527
	c0,5.031,2.972,9.357,7.25,11.35v12.203c0,2.902,2.375,5.277,5.277,5.277s5.277-2.374,5.277-5.277v-12.203
	C265.554,257.152,268.526,252.826,268.526,247.795z"/>
<path style="fill:#2A2A2C;" d="M293.499,189.49v32.14h-13.39v-32.14c0-13.3-10.81-24.11-24.11-24.11v-13.39
	C276.679,151.99,293.499,168.81,293.499,189.49z"/>
<path style="fill:#CA1C00;" d="M306.079,214.38v51.13c0,17.6-14.4,32-32,32h-18.08v-83.13H306.079z"/>
<path style="fill:#2A2A2C;" d="M268.529,247.8c0,5.03-2.98,9.35-7.25,11.35v12.2c0,2.9-2.38,5.27-5.28,5.27v-41.35
	C262.919,235.27,268.529,240.88,268.529,247.8z"/>
<g>
</g>
<g>
</g>
<g>
</g>
<g>
</g>
<g>
</g>
<g>
</g>
<g>
</g>
<g>
</g>
<g>
</g>
<g>
</g>
<g>
</g>
<g>
</g>
<g>
</g>
<g>
</g>
<g>
</g>
</svg>
